first trial
nRows=19
nColumns=38

# SIMM Motion File Header:
name Sujet_04_velo_60.mvnx
datacolumns 38
datarows 19
otherdata 1
range 10.4660 10.7660
endheader
time pelvis_tilt  pelvis_list  pelvis_rotation  pelvis_tx  pelvis_ty  pelvis_tz  hip_flexion_r  hip_adduction_r  hip_rotation_r  knee_angle_r  ankle_angle_r  subtalar_angle_r  mtp_angle_r  hip_flexion_l  hip_adduction_l  hip_rotation_l  knee_angle_l  ankle_angle_l  subtalar_angle_l  mtp_angle_l  lumbar_extension  lumbar_bending  lumbar_rotation  arm_flex_r  arm_add_r  arm_rot_r  elbow_flex_r  pro_sup_r  wrist_flex_r  wrist_dev_r  arm_flex_l  arm_add_l  arm_rot_l  elbow_flex_l  pro_sup_l  wrist_flex_l  wrist_dev_l
10.4660	-14.5665	4.5879	-44.6327	0.0000	1.2500	-0.0000	83.4527	-8.9823	10.2285	92.7419	12.5903	0.7111	-0.0000	44.4973	-2.0165	-10.7826	58.9295	3.4803	9.0961	0.0000	-19.3096	0.8794	-0.1720	72.3371	-10.5533	42.1143	29.1793	32.4695	-27.4988	-10.1282	79.3290	6.6558	26.2835	16.4179	60.1436	-21.5736	-17.3873	
10.4830	-14.4796	4.7252	-44.4906	0.0000	1.2500	-0.0000	82.2503	-9.0565	9.8490	89.7245	12.3609	0.7403	-0.0000	45.8278	-2.0284	-10.6909	62.8014	3.7729	9.3614	0.0000	-19.3473	0.8509	-0.2452	72.3241	-10.5634	42.2399	29.1781	32.2498	-27.4629	-10.0961	79.4689	6.6855	26.1621	16.3332	60.3006	-21.5938	-17.3840	
10.4990	-14.3775	4.8481	-44.3474	0.0000	1.2500	-0.0000	80.8228	-9.1333	9.4296	86.5882	11.9087	0.8408	0.0000	47.2240	-2.0610	-10.6004	66.6824	4.1292	9.5892	-0.0000	-19.3887	0.8202	-0.3131	72.3186	-10.5505	42.3007	29.1332	32.0997	-27.4312	-10.0693	79.6224	6.7038	26.0712	16.2557	60.4546	-21.6274	-17.3920	
10.5160	-14.2546	4.9526	-44.2150	0.0000	1.2500	-0.0000	79.1738	-9.1995	8.9560	83.3495	11.1506	1.0652	0.0000	48.6423	-2.1304	-10.5504	70.5085	4.5790	9.7734	-0.0000	-19.4341	0.7850	-0.3675	72.3117	-10.4982	42.2631	29.0176	32.0666	-27.4128	-10.0529	79.7905	6.7082	25.9937	16.1824	60.6204	-21.6746	-17.4128	
10.5330	-14.1165	5.0426	-44.0814	0.0000	1.2500	-0.0000	77.2993	-9.2596	8.4402	79.9922	10.1660	1.3725	0.0000	50.1265	-2.2207	-10.4990	74.3428	5.0924	9.9177	0.0000	-19.4833	0.7475	-0.4165	72.3122	-10.4231	42.1606	28.8585	32.1029	-27.3987	-10.0418	79.9721	6.7014	25.9468	16.1161	60.7832	-21.7353	-17.4448	
10.5490	-13.9939	5.1342	-43.8963	0.0000	1.2500	-0.0000	75.2706	-9.3339	7.9324	76.6100	9.1240	1.6481	-0.0000	51.6902	-2.2871	-10.3672	78.0800	5.6588	9.9846	-0.0000	-19.5257	0.7128	-0.4774	72.3208	-10.3582	42.0325	28.7143	32.1415	-27.3792	-10.0311	80.1428	6.6767	26.0205	16.0955	60.8645	-21.8018	-17.4885	
10.5660	-13.8999	5.2260	-43.6313	0.0000	1.2500	-0.0000	73.0912	-9.4401	7.4432	73.2089	8.0399	1.8347	0.0000	53.3386	-2.3000	-10.1301	81.6974	6.2925	9.9396	-0.0000	-19.5605	0.6863	-0.5575	72.3516	-10.3122	41.8646	28.6104	32.1853	-27.3480	-10.0170	80.3058	6.6141	26.3071	16.1587	60.7923	-21.8750	-17.5510	
10.5830	-13.8209	5.3192	-43.3149	0.0000	1.2500	-0.0000	70.7562	-9.5535	6.9511	69.7791	6.9008	1.9943	0.0000	55.0674	-2.2767	-9.8197	85.2143	6.9772	9.8185	-0.0000	-19.5888	0.6627	-0.6495	72.3905	-10.2761	41.6714	28.5214	32.2313	-27.3114	-10.0035	80.4582	6.5339	26.7142	16.2689	60.6386	-21.9541	-17.6251	
10.5990	-13.7471	5.4343	-42.9805	0.0000	1.2500	-0.0000	68.3254	-9.6361	6.4587	66.3914	5.8358	2.1853	-0.0000	56.8770	-2.2403	-9.4441	88.5866	7.6567	9.6911	0.0000	-19.6038	0.6309	-0.7486	72.3949	-10.2563	41.5352	28.4281	32.2033	-27.2792	-9.9970	80.5660	6.4892	27.0550	16.3519	60.5418	-22.0286	-17.6890	
10.6160	-13.6737	5.5838	-42.6414	0.0000	1.2500	-0.0000	65.7885	-9.6740	5.9408	63.0321	4.8754	2.4759	0.0000	58.7813	-2.1955	-8.9673	91.8428	8.3356	9.5842	-0.0000	-19.6005	0.5852	-0.8532	72.3475	-10.2598	41.5201	28.3185	32.0431	-27.2528	-9.9989	80.6091	6.5045	27.2463	16.3777	60.5628	-22.0945	-17.7384	
10.6330	-13.6050	5.7551	-42.2844	0.0000	1.2500	-0.0000	63.1569	-9.6786	5.4221	59.7186	3.9879	2.7982	0.0000	60.7676	-2.1293	-8.4302	94.9506	9.0094	9.4739	0.0000	-19.5841	0.5311	-0.9650	72.2654	-10.2796	41.5621	28.2033	31.8080	-27.2309	-10.0080	80.6071	6.5551	27.3711	16.3751	60.6407	-22.1560	-17.7777	
10.6490	-13.5434	5.9311	-41.9040	0.0000	1.2500	-0.0000	60.5226	-9.6586	4.9842	56.5661	3.2096	3.0022	-0.0000	62.7969	-2.0455	-7.9544	97.7763	9.6085	9.3552	-0.0000	-19.5629	0.4745	-1.0846	72.1576	-10.3005	41.5516	28.0983	31.5954	-27.2195	-10.0273	80.5851	6.6212	27.4922	16.3575	60.7311	-22.2148	-17.7977	
10.6660	-13.4885	6.1079	-41.4792	0.0000	1.2500	-0.0000	57.8603	-9.6199	4.6664	53.5576	2.5968	2.9928	-0.0000	64.8789	-1.9483	-7.5524	100.3007	10.1076	9.2402	0.0000	-19.5373	0.4174	-1.2196	72.0360	-10.3148	41.4375	28.0017	31.4472	-27.2270	-10.0645	80.5493	6.7036	27.6232	16.3221	60.8285	-22.2802	-17.7880	
10.6830	-13.4402	6.2894	-41.0311	0.0000	1.2500	-0.0000	55.1937	-9.5654	4.4279	50.7027	2.0954	2.8597	0.0000	67.0031	-1.8385	-7.2166	102.5463	10.5319	9.1207	-0.0000	-19.5072	0.3577	-1.3626	71.8884	-10.3294	41.2710	27.9162	31.3223	-27.2452	-10.1122	80.4930	6.8013	27.7504	16.2717	60.9383	-22.3429	-17.7590	
10.6990	-13.4021	6.4720	-40.6174	0.0000	1.2500	-0.0000	52.6883	-9.5071	4.2345	48.1508	1.5774	2.7298	-0.0000	69.0975	-1.7286	-7.0335	104.4436	10.8880	8.9612	-0.0000	-19.4796	0.2964	-1.4911	71.6886	-10.3514	41.0960	27.8645	31.1939	-27.2554	-10.1504	80.4218	6.8919	27.8961	16.2282	61.0327	-22.3776	-17.7327	
10.7160	-13.3727	6.6608	-40.2236	0.0000	1.2500	-0.0000	50.3554	-9.4600	4.1023	45.8909	0.9713	2.6291	-0.0000	71.1617	-1.6177	-7.0624	105.9706	11.1857	8.7384	0.0000	-19.4567	0.2394	-1.6048	71.4102	-10.3798	40.9243	27.8554	31.0465	-27.2468	-10.1701	80.3420	6.9639	28.0869	16.2057	61.0985	-22.3658	-17.7220	
10.7330	-13.3536	6.8508	-39.8641	0.0000	1.2500	-0.0000	48.1828	-9.4207	4.0194	43.9258	0.3486	2.5289	0.0000	73.1939	-1.5279	-7.2398	107.1506	11.4151	8.4804	-0.0000	-19.4361	0.1810	-1.7041	71.0793	-10.4144	40.7439	27.8802	30.8960	-27.2297	-10.1800	80.2475	7.0285	28.2962	16.1905	61.1488	-22.3259	-17.7142	
10.7490	-13.3539	7.0241	-39.6390	0.0000	1.2500	-0.0000	46.3022	-9.3764	3.9189	42.4269	-0.2041	2.4753	0.0000	75.1202	-1.5094	-7.4558	107.9803	11.5532	8.2251	0.0000	-19.4172	0.1042	-1.7685	70.7489	-10.4651	40.5620	27.9348	30.7617	-27.2171	-10.1860	80.1252	7.0981	28.4653	16.1635	61.1951	-22.2875	-17.6933	
10.7660	-13.3795	7.1805	-39.6062	0.0000	1.2500	-0.0000	44.7511	-9.3265	3.7898	41.4296	-0.7124	2.4910	0.0000	76.9569	-1.5936	-7.6731	108.4629	11.5762	7.9844	-0.0000	-19.3984	-0.0044	-1.7797	70.4067	-10.5531	40.3625	28.0342	30.6538	-27.2204	-10.1927	79.9447	7.1886	28.5837	16.1143	61.2315	-22.2546	-17.6484	
